<svg width="100" height="87" viewBox="0 0 100 87" fill="none" xmlns="http://www.w3.org/2000/svg">
<circle cx="64" cy="51" r="36" fill="#FFCE50"/>
<path d="M51.6799 20.7149C49.7441 17.0427 46.8602 13.9635 43.3289 11.8048C39.7975 9.64607 35.7512 8.48918 31.6171 8.45812C27.483 8.42705 23.418 9.52294 19.8505 11.6273C16.2833 13.7316 13.3468 16.7655 11.3473 20.4064C9.34783 24.0471 8.35812 28.1618 8.48092 32.3176C8.60371 36.4734 9.83462 40.5197 12.0469 44.0298C14.2594 47.5402 17.3721 50.3851 21.0596 52.2614C24.7473 54.1377 28.8711 54.9745 32.9954 54.6821" stroke="black" stroke-width="6" stroke-miterlimit="16" stroke-dasharray="16 10"/>
<path d="M57.6269 35.6269C59.4569 35.6269 60.9403 34.1434 60.9403 32.3134C60.9403 30.4835 59.4569 29 57.6269 29C55.797 29 54.3135 30.4835 54.3135 32.3134C54.3135 34.1434 55.797 35.6269 57.6269 35.6269Z" stroke="#111111" stroke-width="3" stroke-miterlimit="10" stroke-linecap="square"/>
<path d="M64.2537 45.5672V42.2731C64.2537 41.4889 63.8423 40.7677 63.1675 40.3684C62.0934 39.7328 60.2312 38.9403 57.6269 38.9403C54.9888 38.9403 53.1388 39.7278 52.0758 40.3623C51.4064 40.7621 51 41.4812 51 42.2609V45.5672H64.2537Z" stroke="#111111" stroke-width="3" stroke-miterlimit="10" stroke-linecap="square"/>
<path d="M47.6269 58.6269C49.4569 58.6269 50.9403 57.1434 50.9403 55.3134C50.9403 53.4835 49.4569 52 47.6269 52C45.797 52 44.3135 53.4835 44.3135 55.3134C44.3135 57.1434 45.797 58.6269 47.6269 58.6269Z" stroke="#111111" stroke-width="3" stroke-miterlimit="10" stroke-linecap="square"/>
<path d="M54.2537 68.5671V65.2729C54.2537 64.4888 53.8423 63.7675 53.1675 63.3683C52.0934 62.7326 50.2312 61.9402 47.6269 61.9402C44.9888 61.9402 43.1388 62.7277 42.0758 63.3622C41.4064 63.762 41 64.481 41 65.2608V68.5671H54.2537Z" stroke="#111111" stroke-width="3" stroke-miterlimit="10" stroke-linecap="square"/>
<path d="M67.6269 58.6269C69.4569 58.6269 70.9403 57.1434 70.9403 55.3134C70.9403 53.4835 69.4569 52 67.6269 52C65.797 52 64.3135 53.4835 64.3135 55.3134C64.3135 57.1434 65.797 58.6269 67.6269 58.6269Z" stroke="#111111" stroke-width="3" stroke-miterlimit="10" stroke-linecap="square"/>
<path d="M74.2537 68.5671V65.2729C74.2537 64.4888 73.8423 63.7675 73.1675 63.3683C72.0934 62.7326 70.2312 61.9402 67.6269 61.9402C64.9888 61.9402 63.1388 62.7277 62.0758 63.3622C61.4064 63.762 61 64.481 61 65.2608V68.5671H74.2537Z" stroke="#111111" stroke-width="3" stroke-miterlimit="10" stroke-linecap="square"/>
</svg>
