<svg width="420" height="110" viewBox="0 0 420 110" fill="none" xmlns="http://www.w3.org/2000/svg">
<path d="M147.408 79.896C140.667 79.896 135.099 77.656 130.704 73.176C126.309 68.696 124.112 63.1707 124.112 56.6C124.112 49.9867 126.309 44.4613 130.704 40.024C135.099 35.544 140.667 33.304 147.408 33.304C151.461 33.304 155.195 34.264 158.608 36.184C162.064 38.0613 164.752 40.6213 166.672 43.864L159.056 48.28C157.947 46.2747 156.368 44.7173 154.32 43.608C152.272 42.456 149.968 41.88 147.408 41.88C143.056 41.88 139.536 43.2453 136.848 45.976C134.203 48.7067 132.88 52.248 132.88 56.6C132.88 60.9093 134.203 64.4293 136.848 67.16C139.536 69.8907 143.056 71.256 147.408 71.256C149.968 71.256 152.272 70.7013 154.32 69.592C156.411 68.44 157.989 66.8827 159.056 64.92L166.672 69.336C164.752 72.5787 162.085 75.16 158.672 77.08C155.259 78.9573 151.504 79.896 147.408 79.896ZM190.006 46.104C193.504 46.104 196.384 47.2773 198.646 49.624C200.95 51.9707 202.102 55.2133 202.102 59.352V79H193.846V60.376C193.846 58.2427 193.27 56.6213 192.118 55.512C190.966 54.36 189.43 53.784 187.51 53.784C185.376 53.784 183.67 54.4453 182.39 55.768C181.11 57.0907 180.47 59.0747 180.47 61.72V79H172.214V34.2H180.47V50.584C182.475 47.5973 185.654 46.104 190.006 46.104ZM216.127 66.392C217.236 70.4027 220.244 72.408 225.151 72.408C228.308 72.408 230.698 71.3413 232.319 69.208L238.975 73.048C235.818 77.6133 231.167 79.896 225.023 79.896C219.732 79.896 215.487 78.296 212.287 75.096C209.087 71.896 207.487 67.864 207.487 63C207.487 58.1787 209.066 54.168 212.223 50.968C215.38 47.7253 219.434 46.104 224.383 46.104C229.076 46.104 232.938 47.7253 235.967 50.968C239.039 54.2107 240.575 58.2213 240.575 63C240.575 64.0667 240.468 65.1973 240.255 66.392H216.127ZM215.999 59.992H232.319C231.85 57.816 230.868 56.1947 229.375 55.128C227.924 54.0613 226.26 53.528 224.383 53.528C222.164 53.528 220.33 54.104 218.879 55.256C217.428 56.3653 216.468 57.944 215.999 59.992ZM270.409 47H278.665V79H270.409V75.224C267.934 78.3387 264.457 79.896 259.977 79.896C255.71 79.896 252.041 78.2747 248.969 75.032C245.939 71.7467 244.424 67.736 244.424 63C244.424 58.264 245.939 54.2747 248.969 51.032C252.041 47.7467 255.71 46.104 259.977 46.104C264.457 46.104 267.934 47.6613 270.409 50.776V47ZM255.177 69.528C256.841 71.192 258.953 72.024 261.513 72.024C264.073 72.024 266.185 71.192 267.849 69.528C269.555 67.8213 270.409 65.6453 270.409 63C270.409 60.3547 269.555 58.2 267.849 56.536C266.185 54.8293 264.073 53.976 261.513 53.976C258.953 53.976 256.841 54.8293 255.177 56.536C253.513 58.2 252.681 60.3547 252.681 63C252.681 65.6453 253.513 67.8213 255.177 69.528ZM304.775 46.104C309.084 46.104 312.754 47.7467 315.783 51.032C318.855 54.2747 320.391 58.264 320.391 63C320.391 67.736 318.855 71.7467 315.783 75.032C312.754 78.2747 309.084 79.896 304.775 79.896C300.295 79.896 296.839 78.3387 294.407 75.224V91.8H286.151V47H294.407V50.776C296.839 47.6613 300.295 46.104 304.775 46.104ZM296.903 69.528C298.567 71.192 300.679 72.024 303.239 72.024C305.799 72.024 307.911 71.192 309.575 69.528C311.282 67.8213 312.135 65.6453 312.135 63C312.135 60.3547 311.282 58.2 309.575 56.536C307.911 54.8293 305.799 53.976 303.239 53.976C300.679 53.976 298.567 54.8293 296.903 56.536C295.239 58.2 294.407 60.3547 294.407 63C294.407 65.6453 295.239 67.8213 296.903 69.528ZM342.598 34.2H351.43V79H342.598V34.2ZM377.131 46.104C380.629 46.104 383.509 47.2773 385.771 49.624C388.075 51.9707 389.227 55.2133 389.227 59.352V79H380.971V60.376C380.971 58.2427 380.395 56.6213 379.243 55.512C378.091 54.36 376.555 53.784 374.635 53.784C372.501 53.784 370.795 54.4453 369.515 55.768C368.235 57.0907 367.595 59.0747 367.595 61.72V79H359.339V47H367.595V50.584C369.6 47.5973 372.779 46.104 377.131 46.104ZM404.916 78.232C403.849 79.2987 402.569 79.832 401.076 79.832C399.583 79.832 398.303 79.2987 397.236 78.232C396.169 77.1653 395.636 75.8853 395.636 74.392C395.636 72.8987 396.169 71.6187 397.236 70.552C398.303 69.4853 399.583 68.952 401.076 68.952C402.569 68.952 403.849 69.4853 404.916 70.552C405.983 71.6187 406.516 72.8987 406.516 74.392C406.516 75.8853 405.983 77.1653 404.916 78.232Z" fill="#251B1B"/>
<path d="M84 39.7387C80.6949 33.3584 75.3986 28.2335 68.91 25.156C62.4207 22.0782 55.1029 21.2215 48.0762 22.7182C41.0502 24.2147 34.7108 27.9795 30.0194 33.4264C25.3286 38.8724 22.5401 45.7035 22.0708 52.8768C21.6014 60.0501 23.4764 67.1835 27.4183 73.1891C31.3609 79.1955 37.1569 83.7462 43.9291 86.1361C50.7019 88.5261 58.0695 88.6198 64.9046 86.4048C71.7389 84.19 77.6577 79.7915 81.7658 73.8917" stroke="black" stroke-width="22" stroke-miterlimit="16" stroke-dasharray="2 2"/>
</svg>
